<svg width="125" height="191" viewBox="0 0 125 191" fill="none" xmlns="http://www.w3.org/2000/svg">
<path d="M47.3806 39.415H43.2978C42.851 39.415 42.4878 39.7752 42.4841 40.222L42.0907 87.8237C42.087 88.2757 42.4524 88.6441 42.9044 88.6441H66.0882C66.5376 88.6441 66.9019 88.2798 66.9019 87.8304V72.7073C66.9019 71.9326 67.8822 71.5962 68.3579 72.2078L77.6627 84.171C77.9849 84.5854 78.6094 84.5907 78.9386 84.1819L88.7409 72.0136C89.2113 71.4296 90.1544 71.739 90.1874 72.4882L91.2756 97.1521C91.296 97.6152 90.9261 98.0017 90.4626 98.0017H33.1527C32.6957 98.0017 32.3284 97.6256 32.3392 97.1688L33.9281 30.0381C33.9385 29.5964 34.2997 29.2437 34.7415 29.2437H37.6085C38.0579 29.2437 38.4223 28.8794 38.4223 28.43V24.7683C38.4223 24.3189 38.0579 23.9546 37.6085 23.9546H29.4512C29.0098 23.9546 28.6489 24.3065 28.6378 24.7478L26.6446 103.677C26.6331 104.134 27.0006 104.511 27.458 104.511H96.5804C97.0382 104.511 97.4059 104.134 97.3939 103.676L96.2161 58.9225C96.2045 58.4816 95.8438 58.1302 95.4027 58.1302H90.5014C90.2441 58.1302 90.002 58.2519 89.8485 58.4584L78.9583 73.1038C78.6295 73.5459 77.9656 73.5404 77.6443 73.0928L67.1454 58.4693C66.9925 58.2564 66.7465 58.1302 66.4844 58.1302H62.0197C61.5703 58.1302 61.206 58.4945 61.206 58.9439V81.7276C61.206 82.177 60.8417 82.5413 60.3923 82.5413H49.3996C48.9532 82.5413 48.5902 82.1817 48.586 81.7353L48.1943 40.221C48.1901 39.7746 47.827 39.415 47.3806 39.415Z" fill="url(#paint0_linear_2170_1864)"/>
<path d="M94.5328 52.8411H90.0515C89.6184 52.8411 89.2612 52.5019 89.2389 52.0694L88.0981 30.0154C88.0758 29.5829 87.7186 29.2437 87.2855 29.2437H83.176C82.7266 29.2437 82.3623 28.8794 82.3623 28.43V24.7683C82.3623 24.3189 82.7266 23.9546 83.176 23.9546H93.381C93.817 23.9546 94.1755 24.2983 94.1939 24.734L95.3457 51.9931C95.3653 52.4555 94.9956 52.8411 94.5328 52.8411Z" fill="url(#paint1_linear_2170_1864)"/>
<path d="M70.5636 24.7683V28.43C70.5636 28.8794 70.1993 29.2437 69.7499 29.2437H53.4758C53.0264 29.2437 52.6621 28.8794 52.6621 28.43V24.7683C52.6621 24.3189 53.0264 23.9546 53.4758 23.9546H69.7499C70.1993 23.9546 70.5636 24.3189 70.5636 24.7683Z" fill="url(#paint2_linear_2170_1864)"/>
<path d="M47.4015 32.0917H43.3398C42.8769 32.0917 42.5072 31.7059 42.5269 31.2434L43.1377 16.8883C43.2477 14.305 43.9022 11.7741 45.0585 9.46147L45.3483 8.88193C46.149 7.28056 47.2334 5.83767 48.549 4.62328C50.7002 2.63756 53.3918 1.33404 56.2835 0.877446L58.1838 0.577409C59.1113 0.430963 60.0512 0.37866 60.9892 0.421297L62.253 0.478744C66.302 0.662789 70.1503 2.29492 73.097 5.07794C74.9116 6.79173 76.3243 8.88594 77.2339 11.2103L77.9575 13.0595C78.9883 15.6939 79.5784 18.4801 79.704 21.3063L80.2903 34.4966C80.3108 34.9598 79.9409 35.3465 79.4774 35.3465H75.0211C74.5787 35.3465 74.2174 34.9931 74.2076 34.5508L73.9397 22.4953C73.8598 18.9018 72.9847 15.3707 71.3773 12.1559L70.6388 10.9954C69.2771 8.85568 67.198 7.27088 64.7739 6.52502C63.7572 6.21217 62.6994 6.05311 61.6356 6.05311H60.3923C58.2653 6.05311 56.1811 6.65085 54.3774 7.77816L53.8826 8.08737L51.8484 10.1216C49.9934 12.5066 48.9054 15.398 48.728 18.4141L48.5936 20.6998L48.2147 31.307C48.1991 31.7448 47.8396 32.0917 47.4015 32.0917Z" fill="url(#paint3_linear_2170_1864)"/>
<path d="M47.3806 39.415H43.2978C42.851 39.415 42.4878 39.7752 42.4841 40.222L42.0907 87.8237C42.087 88.2757 42.4524 88.6441 42.9044 88.6441H66.0882C66.5376 88.6441 66.9019 88.2798 66.9019 87.8304V72.7073C66.9019 71.9326 67.8822 71.5962 68.3579 72.2078L77.6627 84.171C77.9849 84.5854 78.6094 84.5907 78.9386 84.1819L88.7409 72.0136C89.2113 71.4296 90.1544 71.739 90.1874 72.4882L91.2756 97.1521C91.296 97.6152 90.9261 98.0017 90.4626 98.0017H33.1527C32.6957 98.0017 32.3284 97.6256 32.3392 97.1688L33.9281 30.0381C33.9385 29.5964 34.2997 29.2437 34.7415 29.2437H37.6085C38.0579 29.2437 38.4223 28.8794 38.4223 28.43V24.7683C38.4223 24.3189 38.0579 23.9546 37.6085 23.9546H29.4512C29.0098 23.9546 28.6489 24.3065 28.6378 24.7478L26.6446 103.677C26.6331 104.134 27.0006 104.511 27.458 104.511H96.5804C97.0382 104.511 97.4059 104.134 97.3939 103.676L96.2161 58.9225C96.2045 58.4816 95.8438 58.1302 95.4027 58.1302H90.5014C90.2441 58.1302 90.002 58.2519 89.8485 58.4584L78.9583 73.1038C78.6295 73.5459 77.9656 73.5404 77.6443 73.0928L67.1454 58.4693C66.9925 58.2564 66.7465 58.1302 66.4844 58.1302H62.0197C61.5703 58.1302 61.206 58.4945 61.206 58.9439V81.7276C61.206 82.177 60.8417 82.5413 60.3923 82.5413H49.3996C48.9532 82.5413 48.5902 82.1817 48.586 81.7353L48.1943 40.221C48.1901 39.7746 47.827 39.415 47.3806 39.415Z" stroke="url(#paint4_linear_2170_1864)" stroke-width="0.813704"/>
<path d="M94.5328 52.8411H90.0515C89.6184 52.8411 89.2612 52.5019 89.2389 52.0694L88.0981 30.0154C88.0758 29.5829 87.7186 29.2437 87.2855 29.2437H83.176C82.7266 29.2437 82.3623 28.8794 82.3623 28.43V24.7683C82.3623 24.3189 82.7266 23.9546 83.176 23.9546H93.381C93.817 23.9546 94.1755 24.2983 94.1939 24.734L95.3457 51.9931C95.3653 52.4555 94.9956 52.8411 94.5328 52.8411Z" stroke="url(#paint5_linear_2170_1864)" stroke-width="0.813704"/>
<path d="M70.5636 24.7683V28.43C70.5636 28.8794 70.1993 29.2437 69.7499 29.2437H53.4758C53.0264 29.2437 52.6621 28.8794 52.6621 28.43V24.7683C52.6621 24.3189 53.0264 23.9546 53.4758 23.9546H69.7499C70.1993 23.9546 70.5636 24.3189 70.5636 24.7683Z" stroke="url(#paint6_linear_2170_1864)" stroke-width="0.813704"/>
<path d="M47.4015 32.0917H43.3398C42.8769 32.0917 42.5072 31.7059 42.5269 31.2434L43.1377 16.8883C43.2477 14.305 43.9022 11.7741 45.0585 9.46147L45.3483 8.88193C46.149 7.28056 47.2334 5.83767 48.549 4.62328C50.7002 2.63756 53.3918 1.33404 56.2835 0.877446L58.1838 0.577409C59.1113 0.430963 60.0512 0.37866 60.9892 0.421297L62.253 0.478744C66.302 0.662789 70.1503 2.29492 73.097 5.07794C74.9116 6.79173 76.3243 8.88594 77.2339 11.2103L77.9575 13.0595C78.9883 15.6939 79.5784 18.4801 79.704 21.3063L80.2903 34.4966C80.3108 34.9598 79.9409 35.3465 79.4774 35.3465H75.0211C74.5787 35.3465 74.2174 34.9931 74.2076 34.5508L73.9397 22.4953C73.8598 18.9018 72.9847 15.3707 71.3773 12.1559L70.6388 10.9954C69.2771 8.85568 67.198 7.27088 64.7739 6.52502C63.7572 6.21217 62.6994 6.05311 61.6356 6.05311H60.3923C58.2653 6.05311 56.1811 6.65085 54.3774 7.77816L53.8826 8.08737L51.8484 10.1216C49.9934 12.5066 48.9054 15.398 48.728 18.4141L48.5936 20.6998L48.2147 31.307C48.1991 31.7448 47.8396 32.0917 47.4015 32.0917Z" stroke="url(#paint7_linear_2170_1864)" stroke-width="0.813704"/>
<path d="M12.8951 124.04H0.944475C0.780971 124.04 0.723889 124.254 0.86254 124.341L3.63617 126.075V156.182L0.862539 157.915C0.723888 158.002 0.785288 158.216 0.948792 158.216H27.4777C27.5676 158.216 27.6404 158.143 27.6404 158.053V149.251C27.6404 149.106 27.4652 149.034 27.3626 149.136L20.3648 156.134C20.3343 156.164 20.2929 156.182 20.2497 156.182H10.7154C10.6255 156.182 10.5527 156.109 10.5527 156.019V126.158C10.5527 126.106 10.578 126.056 10.6208 126.026L12.9874 124.335C13.1162 124.243 13.0534 124.04 12.8951 124.04Z" fill="url(#paint8_linear_2170_1864)"/>
<path d="M52.8792 124.04H41.634C41.4705 124.04 41.4091 124.254 41.5478 124.341L44.2449 126.027C44.2925 126.056 44.3214 126.109 44.3214 126.165V145.66C44.3214 147.756 44.8683 149.815 45.908 151.635C46.9993 153.545 48.5927 155.119 50.5154 156.187L52.7391 157.422C54.1667 158.216 55.7305 158.734 57.3493 158.949C59.7379 159.268 62.168 158.918 64.37 157.94L65.2832 157.534C67.2752 156.649 68.9939 155.246 70.2609 153.472C71.6524 151.524 72.4406 149.21 72.5276 146.818L73.2062 128.157C73.2073 128.125 73.2175 128.095 73.2355 128.069L75.8766 124.296C75.9521 124.188 75.875 124.04 75.7433 124.04H67.8245C67.6929 124.04 67.6157 124.188 67.6912 124.296L70.3305 128.067C70.3497 128.094 70.3599 128.127 70.3599 128.16V133.805V139.501L70.0495 147.573C69.9863 149.214 69.4884 150.809 68.6066 152.195L68.3679 152.57C67.5444 153.864 66.3575 154.886 64.9558 155.509C63.9587 155.953 62.8796 156.182 61.7885 156.182H59.925C58.7576 156.182 57.6032 155.937 56.5364 155.462C55.1976 154.867 54.039 153.93 53.1773 152.746L53.022 152.532C51.8625 150.938 51.2379 149.017 51.2379 147.045V126.142C51.2379 126.099 51.255 126.057 51.2855 126.027L52.9943 124.318C53.0968 124.216 53.0242 124.04 52.8792 124.04Z" fill="url(#paint9_linear_2170_1864)"/>
<path d="M102.922 124.04H90.6197C90.4858 124.04 90.4092 124.193 90.4891 124.3L103.239 141.432C103.283 141.493 103.281 141.576 103.233 141.633L89.7031 157.949C89.6151 158.055 89.6906 158.216 89.8284 158.216H99.2604C99.4054 158.216 99.478 158.041 99.3755 157.938L96.9028 155.465C96.8466 155.409 96.8392 155.32 96.8855 155.256L104.796 144.18C104.865 144.084 105.01 144.091 105.069 144.193L111.795 155.666C111.833 155.73 111.822 155.811 111.77 155.864L109.696 157.938C109.593 158.041 109.666 158.216 109.811 158.216H123.338C123.471 158.216 123.547 158.065 123.469 157.957L109.496 138.795C109.451 138.732 109.455 138.646 109.508 138.589L122.594 124.313C122.69 124.209 122.616 124.04 122.474 124.04H112.553C112.427 124.04 112.349 124.178 112.414 124.287L114.647 128.009C114.683 128.069 114.676 128.145 114.631 128.198L107.926 136.086C107.857 136.167 107.731 136.162 107.669 136.075L100.953 126.593C100.907 126.529 100.915 126.44 100.971 126.384L103.037 124.318C103.14 124.216 103.067 124.04 102.922 124.04Z" fill="url(#paint10_linear_2170_1864)"/>
<path d="M12.8951 124.04H0.944475C0.780971 124.04 0.723889 124.254 0.86254 124.341L3.63617 126.075V156.182L0.862539 157.915C0.723888 158.002 0.785288 158.216 0.948792 158.216H27.4777C27.5676 158.216 27.6404 158.143 27.6404 158.053V149.251C27.6404 149.106 27.4652 149.034 27.3626 149.136L20.3648 156.134C20.3343 156.164 20.2929 156.182 20.2497 156.182H10.7154C10.6255 156.182 10.5527 156.109 10.5527 156.019V126.158C10.5527 126.106 10.578 126.056 10.6208 126.026L12.9874 124.335C13.1162 124.243 13.0534 124.04 12.8951 124.04Z" stroke="url(#paint11_linear_2170_1864)" stroke-width="0.813704"/>
<path d="M52.8792 124.04H41.634C41.4705 124.04 41.4091 124.254 41.5478 124.341L44.2449 126.027C44.2925 126.056 44.3214 126.109 44.3214 126.165V145.66C44.3214 147.756 44.8683 149.815 45.908 151.635C46.9993 153.545 48.5927 155.119 50.5154 156.187L52.7391 157.422C54.1667 158.216 55.7305 158.734 57.3493 158.949C59.7379 159.268 62.168 158.918 64.37 157.94L65.2832 157.534C67.2752 156.649 68.9939 155.246 70.2609 153.472C71.6524 151.524 72.4406 149.21 72.5276 146.818L73.2062 128.157C73.2073 128.125 73.2175 128.095 73.2355 128.069L75.8766 124.296C75.9521 124.188 75.875 124.04 75.7433 124.04H67.8245C67.6929 124.04 67.6157 124.188 67.6912 124.296L70.3305 128.067C70.3497 128.094 70.3599 128.127 70.3599 128.16V133.805V139.501L70.0495 147.573C69.9863 149.214 69.4884 150.809 68.6066 152.195L68.3679 152.57C67.5444 153.864 66.3575 154.886 64.9558 155.509C63.9587 155.953 62.8796 156.182 61.7885 156.182H59.925C58.7576 156.182 57.6032 155.937 56.5364 155.462C55.1976 154.867 54.039 153.93 53.1773 152.746L53.022 152.532C51.8625 150.938 51.2379 149.017 51.2379 147.045V126.142C51.2379 126.099 51.255 126.057 51.2855 126.027L52.9943 124.318C53.0968 124.216 53.0242 124.04 52.8792 124.04Z" stroke="url(#paint12_linear_2170_1864)" stroke-width="0.813704"/>
<path d="M102.922 124.04H90.6197C90.4858 124.04 90.4092 124.193 90.4891 124.3L103.239 141.432C103.283 141.493 103.281 141.576 103.233 141.633L89.7031 157.949C89.6151 158.055 89.6906 158.216 89.8284 158.216H99.2604C99.4054 158.216 99.478 158.041 99.3755 157.938L96.9028 155.465C96.8466 155.409 96.8392 155.32 96.8855 155.256L104.796 144.18C104.865 144.084 105.01 144.091 105.069 144.193L111.795 155.666C111.833 155.73 111.822 155.811 111.77 155.864L109.696 157.938C109.593 158.041 109.666 158.216 109.811 158.216H123.338C123.471 158.216 123.547 158.065 123.469 157.957L109.496 138.795C109.451 138.732 109.455 138.646 109.508 138.589L122.594 124.313C122.69 124.209 122.616 124.04 122.474 124.04H112.553C112.427 124.04 112.349 124.178 112.414 124.287L114.647 128.009C114.683 128.069 114.676 128.145 114.631 128.198L107.926 136.086C107.857 136.167 107.731 136.162 107.669 136.075L100.953 126.593C100.907 126.529 100.915 126.44 100.971 126.384L103.037 124.318C103.14 124.216 103.067 124.04 102.922 124.04Z" stroke="url(#paint13_linear_2170_1864)" stroke-width="0.813704"/>
<mask id="path-3-outside-1_2170_1864" maskUnits="userSpaceOnUse" x="-0.480469" y="172.201" width="126" height="15" fill="black">
<rect fill="white" x="-0.480469" y="172.201" width="126" height="15"/>
<path d="M1.24598 173.631H1.7307L6.49056 184.573L11.2663 173.631H11.7431L6.66537 185.201H6.32368L1.24598 173.631ZM1.11883 173.631H1.54794V179.615V185.201H1.11883V173.631ZM11.465 173.631H11.8941V185.201H11.465V179.615V173.631ZM30.7428 173.997L26.563 185.201H26.0942L30.4249 173.631H30.8381L30.7428 173.997ZM34.8113 185.201L30.6315 173.997L30.5441 173.631H30.9494L35.2801 185.201H34.8113ZM33.5875 181.315V181.744H27.7947V181.315H33.5875ZM49.3133 173.631H53.0004C53.7368 173.631 54.3911 173.761 54.9632 174.02C55.5353 174.275 55.983 174.651 56.3061 175.149C56.6346 175.641 56.7988 176.248 56.7988 176.969C56.7988 177.53 56.6769 178.039 56.4333 178.494C56.1896 178.945 55.8638 179.315 55.4559 179.607C55.0479 179.898 54.5924 180.081 54.0891 180.155L53.8428 180.25H49.4166L49.4008 179.821H53.3898C54.052 179.821 54.603 179.684 55.0427 179.408C55.4823 179.133 55.8134 178.778 56.0359 178.343C56.2584 177.904 56.3697 177.445 56.3697 176.969C56.3697 176.359 56.232 175.84 55.9565 175.411C55.681 174.977 55.289 174.643 54.7804 174.41C54.2772 174.177 53.6838 174.06 53.0004 174.06H49.7424V185.201H49.3133V173.631ZM56.8306 185.201L53.66 180.099L54.1606 180.083L57.2835 185.09V185.201H56.8306ZM72.6358 173.631V185.201H72.2067V173.631H72.6358ZM79.9623 173.631L74.7893 178.836L72.461 180.981L72.5246 180.425L74.5271 178.47L79.3425 173.631H79.9623ZM79.8034 185.201L74.3522 178.963L74.6145 178.59L80.3597 185.201H79.8034ZM101.783 184.772V185.201H94.8935V184.772H101.783ZM95.1716 173.631V185.201H94.7425V173.631H95.1716ZM100.972 179.035V179.464H94.8935V179.035H100.972ZM101.783 173.631V174.06H94.8935V173.631H101.783ZM119.861 173.631V185.201H119.432V173.631H119.861ZM124.072 173.631V174.06H115.22V173.631H124.072Z"/>
</mask>
<path d="M1.24598 173.631H1.7307L6.49056 184.573L11.2663 173.631H11.7431L6.66537 185.201H6.32368L1.24598 173.631ZM1.11883 173.631H1.54794V179.615V185.201H1.11883V173.631ZM11.465 173.631H11.8941V185.201H11.465V179.615V173.631ZM30.7428 173.997L26.563 185.201H26.0942L30.4249 173.631H30.8381L30.7428 173.997ZM34.8113 185.201L30.6315 173.997L30.5441 173.631H30.9494L35.2801 185.201H34.8113ZM33.5875 181.315V181.744H27.7947V181.315H33.5875ZM49.3133 173.631H53.0004C53.7368 173.631 54.3911 173.761 54.9632 174.02C55.5353 174.275 55.983 174.651 56.3061 175.149C56.6346 175.641 56.7988 176.248 56.7988 176.969C56.7988 177.53 56.6769 178.039 56.4333 178.494C56.1896 178.945 55.8638 179.315 55.4559 179.607C55.0479 179.898 54.5924 180.081 54.0891 180.155L53.8428 180.25H49.4166L49.4008 179.821H53.3898C54.052 179.821 54.603 179.684 55.0427 179.408C55.4823 179.133 55.8134 178.778 56.0359 178.343C56.2584 177.904 56.3697 177.445 56.3697 176.969C56.3697 176.359 56.232 175.84 55.9565 175.411C55.681 174.977 55.289 174.643 54.7804 174.41C54.2772 174.177 53.6838 174.06 53.0004 174.06H49.7424V185.201H49.3133V173.631ZM56.8306 185.201L53.66 180.099L54.1606 180.083L57.2835 185.09V185.201H56.8306ZM72.6358 173.631V185.201H72.2067V173.631H72.6358ZM79.9623 173.631L74.7893 178.836L72.461 180.981L72.5246 180.425L74.5271 178.47L79.3425 173.631H79.9623ZM79.8034 185.201L74.3522 178.963L74.6145 178.59L80.3597 185.201H79.8034ZM101.783 184.772V185.201H94.8935V184.772H101.783ZM95.1716 173.631V185.201H94.7425V173.631H95.1716ZM100.972 179.035V179.464H94.8935V179.035H100.972ZM101.783 173.631V174.06H94.8935V173.631H101.783ZM119.861 173.631V185.201H119.432V173.631H119.861ZM124.072 173.631V174.06H115.22V173.631H124.072Z" fill="url(#paint14_linear_2170_1864)"/>
<path d="M1.24598 173.631V172.817H0.000242472L0.500871 173.958L1.24598 173.631ZM1.7307 173.631L2.47687 173.306L2.2641 172.817H1.7307V173.631ZM6.49056 184.573L5.74439 184.898L6.48931 186.61L7.23632 184.899L6.49056 184.573ZM11.2663 173.631V172.817H10.7336L10.5205 173.306L11.2663 173.631ZM11.7431 173.631L12.4882 173.958L12.9888 172.817H11.7431V173.631ZM6.66537 185.201V186.015H7.19688L7.41048 185.528L6.66537 185.201ZM6.32368 185.201L5.57858 185.528L5.79218 186.015H6.32368V185.201ZM1.11883 173.631V172.817H0.30513V173.631H1.11883ZM1.54794 173.631H2.36164V172.817H1.54794V173.631ZM1.54794 185.201V186.015H2.36164V185.201H1.54794ZM1.11883 185.201H0.30513V186.015H1.11883V185.201ZM11.465 173.631V172.817H10.6513V173.631H11.465ZM11.8941 173.631H12.7078V172.817H11.8941V173.631ZM11.8941 185.201V186.015H12.7078V185.201H11.8941ZM11.465 185.201H10.6513V186.015H11.465V185.201ZM1.24598 173.631V174.445H1.7307V173.631V172.817H1.24598V173.631ZM1.7307 173.631L0.984538 173.956L5.74439 184.898L6.49056 184.573L7.23672 184.249L2.47687 173.306L1.7307 173.631ZM6.49056 184.573L7.23632 184.899L12.0121 173.957L11.2663 173.631L10.5205 173.306L5.74479 184.248L6.49056 184.573ZM11.2663 173.631V174.445H11.7431V173.631V172.817H11.2663V173.631ZM11.7431 173.631L10.998 173.304L5.92027 184.874L6.66537 185.201L7.41048 185.528L12.4882 173.958L11.7431 173.631ZM6.66537 185.201V184.387H6.32368V185.201V186.015H6.66537V185.201ZM6.32368 185.201L7.06879 184.874L1.99108 173.304L1.24598 173.631L0.500871 173.958L5.57858 185.528L6.32368 185.201ZM1.11883 173.631V174.445H1.54794V173.631V172.817H1.11883V173.631ZM1.54794 173.631H0.734232V179.615H1.54794H2.36164V173.631H1.54794ZM1.54794 179.615H0.734232V185.201H1.54794H2.36164V179.615H1.54794ZM1.54794 185.201V184.387H1.11883V185.201V186.015H1.54794V185.201ZM1.11883 185.201H1.93254V173.631H1.11883H0.30513V185.201H1.11883ZM11.465 173.631V174.445H11.8941V173.631V172.817H11.465V173.631ZM11.8941 173.631H11.0804V185.201H11.8941H12.7078V173.631H11.8941ZM11.8941 185.201V184.387H11.465V185.201V186.015H11.8941V185.201ZM11.465 185.201H12.2787V179.615H11.465H10.6513V185.201H11.465ZM11.465 179.615H12.2787V173.631H11.465H10.6513V179.615H11.465ZM30.7428 173.997L31.5051 174.281L31.5196 174.242L31.5301 174.202L30.7428 173.997ZM26.563 185.201V186.015H27.1279L27.3254 185.485L26.563 185.201ZM26.0942 185.201L25.3321 184.916L24.9207 186.015H26.0942V185.201ZM30.4249 173.631V172.817H29.8606L29.6628 173.346L30.4249 173.631ZM30.8381 173.631L31.6255 173.836L31.8913 172.817H30.8381V173.631ZM34.8113 185.201L34.0489 185.485L34.2464 186.015H34.8113V185.201ZM30.6315 173.997L29.8401 174.186L29.8517 174.234L29.8691 174.281L30.6315 173.997ZM30.5441 173.631V172.817H29.5129L29.7527 173.82L30.5441 173.631ZM30.9494 173.631L31.7114 173.346L31.5136 172.817H30.9494V173.631ZM35.2801 185.201V186.015H36.4535L36.0422 184.916L35.2801 185.201ZM33.5875 181.315H34.4013V180.501H33.5875V181.315ZM33.5875 181.744V182.558H34.4013V181.744H33.5875ZM27.7947 181.744H26.981V182.558H27.7947V181.744ZM27.7947 181.315V180.501H26.981V181.315H27.7947ZM30.7428 173.997L29.9804 173.712L25.8006 184.917L26.563 185.201L27.3254 185.485L31.5051 174.281L30.7428 173.997ZM26.563 185.201V184.387H26.0942V185.201V186.015H26.563V185.201ZM26.0942 185.201L26.8562 185.486L31.187 173.916L30.4249 173.631L29.6628 173.346L25.3321 184.916L26.0942 185.201ZM30.4249 173.631V174.445H30.8381V173.631V172.817H30.4249V173.631ZM30.8381 173.631L30.0508 173.426L29.9554 173.791L30.7428 173.997L31.5301 174.202L31.6255 173.836L30.8381 173.631ZM34.8113 185.201L35.5737 184.917L31.3939 173.712L30.6315 173.997L29.8691 174.281L34.0489 185.485L34.8113 185.201ZM30.6315 173.997L31.4229 173.807L31.3355 173.442L30.5441 173.631L29.7527 173.82L29.8401 174.186L30.6315 173.997ZM30.5441 173.631V174.445H30.9494V173.631V172.817H30.5441V173.631ZM30.9494 173.631L30.1873 173.916L34.5181 185.486L35.2801 185.201L36.0422 184.916L31.7114 173.346L30.9494 173.631ZM35.2801 185.201V184.387H34.8113V185.201V186.015H35.2801V185.201ZM33.5875 181.315H32.7738V181.744H33.5875H34.4013V181.315H33.5875ZM33.5875 181.744V180.931H27.7947V181.744V182.558H33.5875V181.744ZM27.7947 181.744H28.6084V181.315H27.7947H26.981V181.744H27.7947ZM27.7947 181.315V182.129H33.5875V181.315V180.501H27.7947V181.315ZM49.3133 173.631V172.817H48.4996V173.631H49.3133ZM54.9632 174.02L54.627 174.761L54.6327 174.764L54.9632 174.02ZM56.3061 175.149L55.6235 175.592L55.6291 175.6L56.3061 175.149ZM56.4333 178.494L57.1489 178.882L57.1508 178.878L56.4333 178.494ZM54.0891 180.155L53.9705 179.35L53.8803 179.363L53.7953 179.396L54.0891 180.155ZM53.8428 180.25V181.064H53.9948L54.1365 181.009L53.8428 180.25ZM49.4166 180.25L48.6035 180.28L48.6325 181.064H49.4166V180.25ZM49.4008 179.821V179.008H48.5564L48.5876 179.851L49.4008 179.821ZM56.0359 178.343L56.7602 178.714L56.762 178.711L56.0359 178.343ZM55.9565 175.411L55.2693 175.847L55.2717 175.851L55.9565 175.411ZM54.7804 174.41L54.4384 175.148L54.4414 175.15L54.7804 174.41ZM49.7424 174.06V173.246H48.9287V174.06H49.7424ZM49.7424 185.201V186.015H50.5562V185.201H49.7424ZM49.3133 185.201H48.4996V186.015H49.3133V185.201ZM56.8306 185.201L56.1395 185.63L56.3782 186.015H56.8306V185.201ZM53.66 180.099L53.6342 179.286L52.2243 179.331L52.9689 180.529L53.66 180.099ZM54.1606 180.083L54.851 179.653L54.603 179.255L54.1348 179.27L54.1606 180.083ZM57.2835 185.09H58.0972V184.857L57.9739 184.659L57.2835 185.09ZM57.2835 185.201V186.015H58.0972V185.201H57.2835ZM49.3133 173.631V174.445H53.0004V173.631V172.817H49.3133V173.631ZM53.0004 173.631V174.445C53.6406 174.445 54.1771 174.557 54.627 174.761L54.9632 174.02L55.2994 173.279C54.605 172.964 53.833 172.817 53.0004 172.817V173.631ZM54.9632 174.02L54.6327 174.764C55.0691 174.958 55.391 175.233 55.6235 175.592L56.3061 175.149L56.9887 174.706C56.575 174.068 56.0015 173.591 55.2937 173.277L54.9632 174.02ZM56.3061 175.149L55.6291 175.6C55.8507 175.933 55.9851 176.374 55.9851 176.969H56.7988H57.6125C57.6125 176.123 57.4184 175.35 56.9832 174.697L56.3061 175.149ZM56.7988 176.969H55.9851C55.9851 177.408 55.8909 177.783 55.7157 178.11L56.4333 178.494L57.1508 178.878C57.463 178.294 57.6125 177.652 57.6125 176.969H56.7988ZM56.4333 178.494L55.7176 178.107C55.5316 178.451 55.2879 178.727 54.9829 178.945L55.4559 179.607L55.9288 180.269C56.4397 179.904 56.8476 179.438 57.1489 178.882L56.4333 178.494ZM55.4559 179.607L54.9829 178.945C54.6817 179.16 54.3479 179.294 53.9705 179.35L54.0891 180.155L54.2077 180.96C54.8368 180.867 55.4142 180.636 55.9288 180.269L55.4559 179.607ZM54.0891 180.155L53.7953 179.396L53.549 179.492L53.8428 180.25L54.1365 181.009L54.3828 180.914L54.0891 180.155ZM53.8428 180.25V179.437H49.4166V180.25V181.064H53.8428V180.25ZM49.4166 180.25L50.2298 180.22L50.2139 179.791L49.4008 179.821L48.5876 179.851L48.6035 180.28L49.4166 180.25ZM49.4008 179.821V180.635H53.3898V179.821V179.008H49.4008V179.821ZM53.3898 179.821V180.635C54.1631 180.635 54.8742 180.474 55.4747 180.098L55.0426 179.408L54.6106 178.718C54.3318 178.893 53.9409 179.008 53.3898 179.008V179.821ZM55.0426 179.408L55.4747 180.098C56.0306 179.749 56.4665 179.288 56.7602 178.714L56.0359 178.343L55.3117 177.972C55.1604 178.268 54.9341 178.516 54.6106 178.718L55.0426 179.408ZM56.0359 178.343L56.762 178.711C57.0401 178.161 57.1834 177.577 57.1834 176.969H56.3697H55.556C55.556 177.313 55.4768 177.646 55.3099 177.976L56.0359 178.343ZM56.3697 176.969H57.1834C57.1834 176.234 57.0161 175.555 56.6412 174.971L55.9565 175.411L55.2717 175.851C55.4478 176.125 55.556 176.484 55.556 176.969H56.3697ZM55.9565 175.411L56.6437 174.975C56.2766 174.396 55.758 173.963 55.1195 173.67L54.7804 174.41L54.4414 175.15C54.82 175.323 55.0854 175.557 55.2693 175.847L55.9565 175.411ZM54.7804 174.41L55.1224 173.671C54.4901 173.379 53.7752 173.246 53.0004 173.246V174.06V174.874C53.5925 174.874 54.0642 174.975 54.4384 175.148L54.7804 174.41ZM53.0004 174.06V173.246H49.7424V174.06V174.874H53.0004V174.06ZM49.7424 174.06H48.9287V185.201H49.7424H50.5562V174.06H49.7424ZM49.7424 185.201V184.387H49.3133V185.201V186.015H49.7424V185.201ZM49.3133 185.201H50.127V173.631H49.3133H48.4996V185.201H49.3133ZM56.8306 185.201L57.5217 184.771L54.3511 179.67L53.66 180.099L52.9689 180.529L56.1395 185.63L56.8306 185.201ZM53.66 180.099L53.6858 180.913L54.1864 180.897L54.1606 180.083L54.1348 179.27L53.6342 179.286L53.66 180.099ZM54.1606 180.083L53.4702 180.514L56.5931 185.52L57.2835 185.09L57.9739 184.659L54.851 179.653L54.1606 180.083ZM57.2835 185.09H56.4698V185.201H57.2835H58.0972V185.09H57.2835ZM57.2835 185.201V184.387H56.8306V185.201V186.015H57.2835V185.201ZM72.6358 173.631H73.4495V172.817H72.6358V173.631ZM72.6358 185.201V186.015H73.4495V185.201H72.6358ZM72.2067 185.201H71.393V186.015H72.2067V185.201ZM72.2067 173.631V172.817H71.393V173.631H72.2067ZM79.9623 173.631L80.5395 174.205L81.9183 172.817H79.9623V173.631ZM74.7893 178.836L75.3407 179.434L75.3538 179.422L75.3664 179.41L74.7893 178.836ZM72.461 180.981L71.6526 180.889L71.4043 183.062L73.0124 181.58L72.461 180.981ZM72.5246 180.425L71.9562 179.843L71.749 180.045L71.7161 180.333L72.5246 180.425ZM74.5271 178.47L75.0955 179.053L75.1039 179.044L74.5271 178.47ZM79.3425 173.631V172.817H79.0043L78.7657 173.057L79.3425 173.631ZM79.8034 185.201L79.1907 185.736L79.4339 186.015H79.8034V185.201ZM74.3522 178.963L73.6863 178.495L73.3195 179.018L73.7395 179.498L74.3522 178.963ZM74.6145 178.59L75.2287 178.056L74.5463 177.271L73.9485 178.122L74.6145 178.59ZM80.3597 185.201V186.015H82.1448L80.9739 184.667L80.3597 185.201ZM72.6358 173.631H71.8221V185.201H72.6358H73.4495V173.631H72.6358ZM72.6358 185.201V184.387H72.2067V185.201V186.015H72.6358V185.201ZM72.2067 185.201H73.0204V173.631H72.2067H71.393V185.201H72.2067ZM72.2067 173.631V174.445H72.6358V173.631V172.817H72.2067V173.631ZM79.9623 173.631L79.3852 173.057L74.2122 178.262L74.7893 178.836L75.3664 179.41L80.5395 174.205L79.9623 173.631ZM74.7893 178.836L74.2379 178.238L71.9096 180.383L72.461 180.981L73.0124 181.58L75.3407 179.434L74.7893 178.836ZM72.461 180.981L73.2695 181.074L73.333 180.518L72.5246 180.425L71.7161 180.333L71.6526 180.889L72.461 180.981ZM72.5246 180.425L73.093 181.007L75.0955 179.053L74.5271 178.47L73.9587 177.888L71.9562 179.843L72.5246 180.425ZM74.5271 178.47L75.1039 179.044L79.9193 174.205L79.3425 173.631L78.7657 173.057L73.9503 177.896L74.5271 178.47ZM79.3425 173.631V174.445H79.9623V173.631V172.817H79.3425V173.631ZM79.8034 185.201L80.4161 184.665L74.965 178.428L74.3522 178.963L73.7395 179.498L79.1907 185.736L79.8034 185.201ZM74.3522 178.963L75.0182 179.431L75.2804 179.057L74.6145 178.59L73.9485 178.122L73.6863 178.495L74.3522 178.963ZM74.6145 178.59L74.0003 179.123L79.7455 185.735L80.3597 185.201L80.9739 184.667L75.2287 178.056L74.6145 178.59ZM80.3597 185.201V184.387H79.8034V185.201V186.015H80.3597V185.201ZM101.783 184.772H102.597V183.958H101.783V184.772ZM101.783 185.201V186.015H102.597V185.201H101.783ZM94.8935 185.201H94.0798V186.015H94.8935V185.201ZM94.8935 184.772V183.958H94.0798V184.772H94.8935ZM95.1716 173.631H95.9853V172.817H95.1716V173.631ZM95.1716 185.201V186.015H95.9853V185.201H95.1716ZM94.7425 185.201H93.9288V186.015H94.7425V185.201ZM94.7425 173.631V172.817H93.9288V173.631H94.7425ZM100.972 179.035H101.786V178.221H100.972V179.035ZM100.972 179.464V180.277H101.786V179.464H100.972ZM94.8935 179.464H94.0798V180.277H94.8935V179.464ZM94.8935 179.035V178.221H94.0798V179.035H94.8935ZM101.783 173.631H102.597V172.817H101.783V173.631ZM101.783 174.06V174.874H102.597V174.06H101.783ZM94.8935 174.06H94.0798V174.874H94.8935V174.06ZM94.8935 173.631V172.817H94.0798V173.631H94.8935ZM101.783 184.772H100.969V185.201H101.783H102.597V184.772H101.783ZM101.783 185.201V184.387H94.8935V185.201V186.015H101.783V185.201ZM94.8935 185.201H95.7072V184.772H94.8935H94.0798V185.201H94.8935ZM94.8935 184.772V185.586H101.783V184.772V183.958H94.8935V184.772ZM95.1716 173.631H94.3579V185.201H95.1716H95.9853V173.631H95.1716ZM95.1716 185.201V184.387H94.7425V185.201V186.015H95.1716V185.201ZM94.7425 185.201H95.5562V173.631H94.7425H93.9288V185.201H94.7425ZM94.7425 173.631V174.445H95.1716V173.631V172.817H94.7425V173.631ZM100.972 179.035H100.159V179.464H100.972H101.786V179.035H100.972ZM100.972 179.464V178.65H94.8935V179.464V180.277H100.972V179.464ZM94.8935 179.464H95.7072V179.035H94.8935H94.0798V179.464H94.8935ZM94.8935 179.035V179.848H100.972V179.035V178.221H94.8935V179.035ZM101.783 173.631H100.969V174.06H101.783H102.597V173.631H101.783ZM101.783 174.06V173.246H94.8935V174.06V174.874H101.783V174.06ZM94.8935 174.06H95.7072V173.631H94.8935H94.0798V174.06H94.8935ZM94.8935 173.631V174.445H101.783V173.631V172.817H94.8935V173.631ZM119.861 173.631H120.675V172.817H119.861V173.631ZM119.861 185.201V186.015H120.675V185.201H119.861ZM119.432 185.201H118.618V186.015H119.432V185.201ZM119.432 173.631V172.817H118.618V173.631H119.432ZM124.072 173.631H124.886V172.817H124.072V173.631ZM124.072 174.06V174.874H124.886V174.06H124.072ZM115.22 174.06H114.407V174.874H115.22V174.06ZM115.22 173.631V172.817H114.407V173.631H115.22ZM119.861 173.631H119.047V185.201H119.861H120.675V173.631H119.861ZM119.861 185.201V184.387H119.432V185.201V186.015H119.861V185.201ZM119.432 185.201H120.245V173.631H119.432H118.618V185.201H119.432ZM119.432 173.631V174.445H119.861V173.631V172.817H119.432V173.631ZM124.072 173.631H123.259V174.06H124.072H124.886V173.631H124.072ZM124.072 174.06V173.246H115.22V174.06V174.874H124.072V174.06ZM115.22 174.06H116.034V173.631H115.22H114.407V174.06H115.22ZM115.22 173.631V174.445H124.072V173.631V172.817H115.22V173.631Z" fill="url(#paint15_linear_2170_1864)" mask="url(#path-3-outside-1_2170_1864)"/>
<defs>
<linearGradient id="paint0_linear_2170_1864" x1="97.4158" y1="104.511" x2="10.0211" y2="87.9456" gradientUnits="userSpaceOnUse">
<stop stop-color="#5274F9"/>
<stop offset="0.25" stop-color="#7060E8"/>
<stop offset="0.5" stop-color="#7B42D2"/>
<stop offset="0.75" stop-color="#AB45E2"/>
<stop offset="1" stop-color="#D54EE5"/>
</linearGradient>
<linearGradient id="paint1_linear_2170_1864" x1="97.4158" y1="104.511" x2="10.0211" y2="87.9456" gradientUnits="userSpaceOnUse">
<stop stop-color="#5274F9"/>
<stop offset="0.25" stop-color="#7060E8"/>
<stop offset="0.5" stop-color="#7B42D2"/>
<stop offset="0.75" stop-color="#AB45E2"/>
<stop offset="1" stop-color="#D54EE5"/>
</linearGradient>
<linearGradient id="paint2_linear_2170_1864" x1="97.4158" y1="104.511" x2="10.0211" y2="87.9456" gradientUnits="userSpaceOnUse">
<stop stop-color="#5274F9"/>
<stop offset="0.25" stop-color="#7060E8"/>
<stop offset="0.5" stop-color="#7B42D2"/>
<stop offset="0.75" stop-color="#AB45E2"/>
<stop offset="1" stop-color="#D54EE5"/>
</linearGradient>
<linearGradient id="paint3_linear_2170_1864" x1="97.4158" y1="104.511" x2="10.0211" y2="87.9456" gradientUnits="userSpaceOnUse">
<stop stop-color="#5274F9"/>
<stop offset="0.25" stop-color="#7060E8"/>
<stop offset="0.5" stop-color="#7B42D2"/>
<stop offset="0.75" stop-color="#AB45E2"/>
<stop offset="1" stop-color="#D54EE5"/>
</linearGradient>
<linearGradient id="paint4_linear_2170_1864" x1="97.4158" y1="104.511" x2="10.0211" y2="87.9456" gradientUnits="userSpaceOnUse">
<stop stop-color="#5274F9"/>
<stop offset="0.25" stop-color="#7060E8"/>
<stop offset="0.5" stop-color="#7B42D2"/>
<stop offset="0.75" stop-color="#AB45E2"/>
<stop offset="1" stop-color="#D54EE5"/>
</linearGradient>
<linearGradient id="paint5_linear_2170_1864" x1="97.4158" y1="104.511" x2="10.0211" y2="87.9456" gradientUnits="userSpaceOnUse">
<stop stop-color="#5274F9"/>
<stop offset="0.25" stop-color="#7060E8"/>
<stop offset="0.5" stop-color="#7B42D2"/>
<stop offset="0.75" stop-color="#AB45E2"/>
<stop offset="1" stop-color="#D54EE5"/>
</linearGradient>
<linearGradient id="paint6_linear_2170_1864" x1="97.4158" y1="104.511" x2="10.0211" y2="87.9456" gradientUnits="userSpaceOnUse">
<stop stop-color="#5274F9"/>
<stop offset="0.25" stop-color="#7060E8"/>
<stop offset="0.5" stop-color="#7B42D2"/>
<stop offset="0.75" stop-color="#AB45E2"/>
<stop offset="1" stop-color="#D54EE5"/>
</linearGradient>
<linearGradient id="paint7_linear_2170_1864" x1="97.4158" y1="104.511" x2="10.0211" y2="87.9456" gradientUnits="userSpaceOnUse">
<stop stop-color="#5274F9"/>
<stop offset="0.25" stop-color="#7060E8"/>
<stop offset="0.5" stop-color="#7B42D2"/>
<stop offset="0.75" stop-color="#AB45E2"/>
<stop offset="1" stop-color="#D54EE5"/>
</linearGradient>
<linearGradient id="paint8_linear_2170_1864" x1="123.658" y1="159.436" x2="42.5325" y2="80.6422" gradientUnits="userSpaceOnUse">
<stop stop-color="#5274F9"/>
<stop offset="0.25" stop-color="#7060E8"/>
<stop offset="0.5" stop-color="#7B42D2"/>
<stop offset="0.75" stop-color="#AB45E2"/>
<stop offset="1" stop-color="#D54EE5"/>
</linearGradient>
<linearGradient id="paint9_linear_2170_1864" x1="123.658" y1="159.436" x2="42.5325" y2="80.6422" gradientUnits="userSpaceOnUse">
<stop stop-color="#5274F9"/>
<stop offset="0.25" stop-color="#7060E8"/>
<stop offset="0.5" stop-color="#7B42D2"/>
<stop offset="0.75" stop-color="#AB45E2"/>
<stop offset="1" stop-color="#D54EE5"/>
</linearGradient>
<linearGradient id="paint10_linear_2170_1864" x1="123.658" y1="159.436" x2="42.5325" y2="80.6422" gradientUnits="userSpaceOnUse">
<stop stop-color="#5274F9"/>
<stop offset="0.25" stop-color="#7060E8"/>
<stop offset="0.5" stop-color="#7B42D2"/>
<stop offset="0.75" stop-color="#AB45E2"/>
<stop offset="1" stop-color="#D54EE5"/>
</linearGradient>
<linearGradient id="paint11_linear_2170_1864" x1="123.658" y1="159.436" x2="42.5325" y2="80.6422" gradientUnits="userSpaceOnUse">
<stop stop-color="#5274F9"/>
<stop offset="0.25" stop-color="#7060E8"/>
<stop offset="0.5" stop-color="#7B42D2"/>
<stop offset="0.75" stop-color="#AB45E2"/>
<stop offset="1" stop-color="#D54EE5"/>
</linearGradient>
<linearGradient id="paint12_linear_2170_1864" x1="123.658" y1="159.436" x2="42.5325" y2="80.6422" gradientUnits="userSpaceOnUse">
<stop stop-color="#5274F9"/>
<stop offset="0.25" stop-color="#7060E8"/>
<stop offset="0.5" stop-color="#7B42D2"/>
<stop offset="0.75" stop-color="#AB45E2"/>
<stop offset="1" stop-color="#D54EE5"/>
</linearGradient>
<linearGradient id="paint13_linear_2170_1864" x1="123.658" y1="159.436" x2="42.5325" y2="80.6422" gradientUnits="userSpaceOnUse">
<stop stop-color="#5274F9"/>
<stop offset="0.25" stop-color="#7060E8"/>
<stop offset="0.5" stop-color="#7B42D2"/>
<stop offset="0.75" stop-color="#AB45E2"/>
<stop offset="1" stop-color="#D54EE5"/>
</linearGradient>
<linearGradient id="paint14_linear_2170_1864" x1="124.52" y1="190.201" x2="81.9536" y2="119.542" gradientUnits="userSpaceOnUse">
<stop stop-color="#5274F9"/>
<stop offset="0.25" stop-color="#7060E8"/>
<stop offset="0.5" stop-color="#7B42D2"/>
<stop offset="0.75" stop-color="#AB45E2"/>
<stop offset="1" stop-color="#D54EE5"/>
</linearGradient>
<linearGradient id="paint15_linear_2170_1864" x1="124.52" y1="190.201" x2="81.9536" y2="119.542" gradientUnits="userSpaceOnUse">
<stop stop-color="#5274F9"/>
<stop offset="0.25" stop-color="#7060E8"/>
<stop offset="0.5" stop-color="#7B42D2"/>
<stop offset="0.75" stop-color="#AB45E2"/>
<stop offset="1" stop-color="#D54EE5"/>
</linearGradient>
</defs>
</svg>
